<svg width="15" height="14" xmlns="http://www.w3.org/2000/svg" xmlns:xlink="http://www.w3.org/1999/xlink" xmlns:svgjs="http://svgjs.com/svgjs" viewBox="0.081 0 14.837 14" fill="#fff"><svg xmlns="http://www.w3.org/2000/svg" width="15" height="14" viewBox="1 0 14 13.21"><path paint-order="stroke fill markers" fill-rule="evenodd" d="M7.977 7.414c2.069 0 3.747-1.663 3.747-3.713S10.046 0 7.977 0 4.23 1.663 4.23 3.701c0 2.039 1.678 3.713 3.747 3.713zm0-6.446c1.517 0 2.759 1.23 2.759 2.733 0 1.503-1.242 2.733-2.759 2.733s-2.759-1.23-2.759-2.733C5.218 2.198 6.46.968 7.977.968zM1.494 13.21h13.012a.488.488 0 0 0 .494-.49c0-2.562-2.103-4.657-4.701-4.657H5.7C3.115 8.063 1 10.147 1 12.72c0 .274.218.49.494.49zm4.207-4.168H10.3a3.699 3.699 0 0 1 3.678 3.189H2.023c.241-1.788 1.793-3.189 3.678-3.189z"/></svg></svg>