<svg width="16" height="16" xmlns="http://www.w3.org/2000/svg" xmlns:xlink="http://www.w3.org/1999/xlink" xmlns:svgjs="http://svgjs.com/svgjs" fill="#9294a3"><svg xmlns="http://www.w3.org/2000/svg" width="16" height="16" viewBox="0 0 15 15"><path paint-order="stroke fill markers" fill-rule="evenodd" d="M.53 5.948a.524.524 0 0 0-.53.53v2.07c0 .297.232.53.53.53h.967c.142.556.362 1.086.659 1.577l-.672.673a.531.531 0 0 0 0 .75l1.46 1.46a.53.53 0 0 0 .748 0l.684-.685c.49.285 1.02.505 1.575.647v.97c0 .297.232.53.53.53h2.065c.296 0 .529-.233.529-.53v-.983a6.13 6.13 0 0 0 1.562-.646l.697.698a.53.53 0 0 0 .749 0l1.458-1.461a.531.531 0 0 0 0-.75l-.697-.699a6.154 6.154 0 0 0 .646-1.564h.98c.298 0 .53-.233.53-.53v-2.07a.524.524 0 0 0-.53-.53h-.98a6.154 6.154 0 0 0-.646-1.564l.697-.699a.531.531 0 0 0 0-.75L12.07 1.474a.53.53 0 0 0-.75 0l-.683.685A6.765 6.765 0 0 0 9.062 1.5V.53a.524.524 0 0 0-.53-.53H6.468a.524.524 0 0 0-.529.53v.97a6.218 6.218 0 0 0-1.575.647L3.68 1.46a.53.53 0 0 0-.749 0L1.472 2.935a.531.531 0 0 0 0 .75l.67.673a5.747 5.747 0 0 0-.658 1.59H.53zm1.91.62c.129-.723.413-1.383.813-1.977a.53.53 0 0 0-.065-.673l-.593-.608.71-.71.606.607c.181.18.465.207.672.065a5.01 5.01 0 0 1 1.975-.815.538.538 0 0 0 .439-.517v-.867h1.006v.867c0 .258.181.478.426.517a5.15 5.15 0 0 1 1.963.815c.206.142.49.116.67-.065l.62-.62.71.71-.62.621a.53.53 0 0 0-.064.673c.4.594.671 1.254.813 1.965a.55.55 0 0 0 .517.44h.878v1.008h-.878a.516.516 0 0 0-.517.427c-.129.711-.4 1.37-.813 1.966a.53.53 0 0 0 .065.672l.62.62-.71.712-.62-.62a.528.528 0 0 0-.671-.065 4.954 4.954 0 0 1-1.963.814.537.537 0 0 0-.426.517v.867H6.997v-.867a.516.516 0 0 0-.44-.517 4.932 4.932 0 0 1-1.974-.814.528.528 0 0 0-.672.064l-.606.608-.71-.672.606-.608a.53.53 0 0 0 .065-.673 5.248 5.248 0 0 1-.826-1.978.526.526 0 0 0-.517-.427h-.852V7.022h.852a.562.562 0 0 0 .517-.453zm5.047 4.656a3.634 3.634 0 0 0 0-7.267 3.634 3.634 0 0 0 0 7.267zm0-6.207a2.57 2.57 0 0 1 2.569 2.573 2.57 2.57 0 1 1-5.138 0 2.57 2.57 0 0 1 2.569-2.573z"/></svg></svg>